<svg width="40" height="40" viewBox="0 0 40 40" fill="none" xmlns="http://www.w3.org/2000/svg">
<rect width="40" height="40" rx="10" fill="url(#paint0_linear_315_58)"/>
<path d="M16.2316 10.5449C14.4828 11.1594 11.9778 13.239 13.1121 16.7839" stroke="#145CFC" stroke-width="2" stroke-linecap="round"/>
<path d="M32.884 30.17L25.8723 25.0251C25.1757 24.514 25.0056 23.5446 25.4867 22.8268C25.9502 22.1352 26.8639 21.9101 27.5956 22.3071L35.2397 26.4544C36.3836 27.075 36.7439 28.5461 36.0164 29.625C35.3164 30.6631 33.8934 30.9107 32.884 30.17Z" fill="white" stroke="#145CFC"/>
<path d="M24.6708 19.678L24.0437 19.3299L22.258 22.4933C22.0764 22.8151 22.2113 23.2234 22.549 23.3735L22.6524 23.4195C22.8725 23.5174 23.131 23.4418 23.2637 23.2408C23.3883 23.0521 23.6253 22.9724 23.8386 23.0475L23.8561 23.0537C24.0884 23.1355 24.3461 23.0419 24.4718 22.8302L25.1404 21.7047C25.2432 21.5316 25.1747 21.3076 24.9927 21.2215C24.825 21.1423 24.7513 20.9436 24.8266 20.7741L24.947 20.5035C25.0826 20.1984 24.9628 19.8401 24.6708 19.678Z" fill="white" stroke="#145CFC"/>
<path d="M21.0272 23.1585C21.3081 21.8249 21.9858 20.8962 23.0657 19.838C24.4143 18.6489 25.1001 16.9184 25.1178 15.1811C25.1394 13.0546 24.3154 11.0066 22.827 9.4876C21.3386 7.96863 19.3077 7.10313 17.1812 7.08151C15.0547 7.05989 13.0066 7.88392 11.4877 9.37233C9.96869 10.8607 9.10319 12.8916 9.08157 15.0181C9.06799 16.3545 9.31896 17.9608 11.0386 19.7157C11.9645 20.6607 12.7554 21.7379 13.0091 23.077" stroke="#145CFC" stroke-width="2" stroke-linecap="round" stroke-linejoin="round"/>
<path d="M14.9553 27.4185H19.4927" stroke="#145CFC" stroke-width="2" stroke-linecap="round" stroke-linejoin="round"/>
<path d="M15.8062 31.6248H18.642" stroke="#145CFC" stroke-width="2" stroke-linecap="round" stroke-linejoin="round"/>
<defs>
<linearGradient id="paint0_linear_315_58" x1="3.5" y1="35" x2="34.5" y2="7.5" gradientUnits="userSpaceOnUse">
<stop stop-color="white"/>
<stop offset="1" stop-color="white"/>
</linearGradient>
</defs>
</svg>
