<svg width="41" height="41" viewBox="0 0 41 41" fill="none" xmlns="http://www.w3.org/2000/svg">
<rect x="0.377167" width="40" height="40" rx="10" transform="rotate(0.540265 0.377167 0)" fill="url(#paint0_linear_276_59)"/>
<path d="M16.5083 10.6974C14.7538 11.2954 12.2292 13.3513 13.3301 16.9067" stroke="white" stroke-width="2" stroke-linecap="round"/>
<path d="M32.9751 30.4787L26.0123 25.2679C25.3205 24.7502 25.1596 23.7793 25.6474 23.0661C26.1174 22.3789 27.0332 22.1624 27.7612 22.5663L35.3658 26.7855C36.5038 27.4168 36.8502 28.8912 36.1125 29.9633C35.4028 30.9947 33.9776 31.2288 32.9751 30.4787Z" fill="white"/>
<path d="M24.8617 19.9098L24.2379 19.5558L22.4224 22.7022C22.2378 23.0223 22.3689 23.4318 22.7051 23.5851L22.808 23.6321C23.0272 23.732 23.2865 23.6588 23.4211 23.4591C23.5474 23.2716 23.7852 23.1942 23.9977 23.2713L24.0152 23.2776C24.2467 23.3616 24.5052 23.2705 24.633 23.06L25.3121 21.9408C25.4165 21.7687 25.3502 21.544 25.169 21.4563C25.0021 21.3754 24.9302 21.176 25.0072 21.0073L25.13 20.7378C25.2686 20.434 25.1521 20.0746 24.8617 19.9098Z" fill="white" stroke="white"/>
<path d="M21.1851 23.3557C21.4785 22.0248 22.1649 21.1026 23.2548 20.0546C24.6145 18.8782 25.3167 17.1543 25.3507 15.4173C25.3924 13.291 24.5877 11.2353 23.1137 9.70239C21.6397 8.16945 19.6171 7.28484 17.4908 7.24317C15.3646 7.2015 13.3089 8.00619 11.776 9.4802C10.243 10.9542 9.3584 12.9768 9.31673 15.103C9.29055 16.4392 9.52636 18.0479 11.2293 19.8189C12.1463 20.7726 12.9271 21.8572 13.1681 23.1986" stroke="white" stroke-width="2" stroke-linecap="round" stroke-linejoin="round"/>
<path d="M15.0735 27.5582L19.6107 27.601" stroke="white" stroke-width="2" stroke-linecap="round" stroke-linejoin="round"/>
<path d="M15.8845 31.7724L18.7203 31.7991" stroke="white" stroke-width="2" stroke-linecap="round" stroke-linejoin="round"/>
<defs>
<linearGradient id="paint0_linear_276_59" x1="3.87717" y1="35" x2="34.8772" y2="7.5" gradientUnits="userSpaceOnUse">
<stop stop-color="#145CFC"/>
<stop offset="1" stop-color="#3A76FD"/>
</linearGradient>
</defs>
</svg>
